# xmcd
#
# Track frame offsets:
#	150
#	23498
#	48796
#	77063
#	94344
#	108961
#	119794
#	150290
#	172757
#	193221
#	219770
#
# Disc length: 3178 seconds
#
# Revision: 0
# Processed by: cddbd v1.4PL0 Copyright (c) Steve Scherf et al.
# Submitted via: dBpowerAMP V4.0
#
DISCID=7e0c680b
DTITLE=Cephas and Wiggins - Masters of The Piedmont Blues
DYEAR=1900
DGENRE=
TTITLE0=Guitar Man
TTITLE1=Prison Blues
TTITLE2=John Henry
TTITLE3=Brother, Can You Spare a Dime?
TTITLE4=Piedmont Medley- Home Sweet Home-Hand me Down my Walking Cane-Going Down The Road Feeling Bad-Carel
TTITLE5=Amazing Grace
TTITLE6=Brownsville Blues
TTITLE7=Rising River
TTITLE8=Were You There?
TTITLE9=Little Red Rooster
TTITLE10=Dog Days of August
EXTD=
EXTT0=
EXTT1=
EXTT2=
EXTT3=
EXTT4=
EXTT5=
EXTT6=
EXTT7=
EXTT8=
EXTT9=
EXTT10=
PLAYORDER=
